<svg id="visual" viewBox="0 0 1908 309" width="1908" height="309" xmlns="http://www.w3.org/2000/svg" xmlns:xlink="http://www.w3.org/1999/xlink" version="1.1"><rect width="1908" height="309" fill="#001d32"></rect><g><g transform="translate(779 288)"><path d="M0 -104.9L82 -65.4L102.3 23.3L45.5 94.5L-45.5 94.5L-102.3 23.3L-82 -65.4Z" fill="#2680a9"></path></g><g transform="translate(270 10)"><path d="M0 -65L50.8 -40.5L63.4 14.5L28.2 58.6L-28.2 58.6L-63.4 14.5L-50.8 -40.5Z" fill="#2680a9"></path></g><g transform="translate(406 236)"><path d="M0 -79L61.8 -49.3L77 17.6L34.3 71.2L-34.3 71.2L-77 17.6L-61.8 -49.3Z" fill="#2680a9"></path></g><g transform="translate(1753 213)"><path d="M0 -80L62.5 -49.9L78 17.8L34.7 72.1L-34.7 72.1L-78 17.8L-62.5 -49.9Z" fill="#2680a9"></path></g><g transform="translate(1273 65)"><path d="M0 -90L70.4 -56.1L87.7 20L39 81.1L-39 81.1L-87.7 20L-70.4 -56.1Z" fill="#2680a9"></path></g></g></svg>